<svg xmlns="http://www.w3.org/2000/svg" width="42.303"
    height="42.303" viewBox="0 0 42.303 42.303">
    <defs>
        <clipPath id="a">
            <circle cx="21.151" cy="21.151" r="21.151" fill="none" />
        </clipPath>
    </defs>
    <g transform="translate(-479.477 -228.165)">
        <g transform="translate(479.477 228.165)" clip-path="url(#a)">
            <rect width="66.718" height="56.217" transform="translate(-11.144 -5.784)"
                fill="#d8ecf0" />
            <g transform="translate(-23.026 5.905)">
                <g transform="translate(61.582 171.735)">
                    <g transform="translate(0 1.579)">
                        <path
                            d="M518.929,366.152c.416-2.441-2.995-1.766-4.975-2.317.6.357,1.192.87.275,1.157-1.342.419-4.317.067-5.219-.886a6.246,6.246,0,0,0-.341,2.443C508.7,367.443,518.639,367.855,518.929,366.152Z"
                            transform="translate(-508.664 -363.835)" fill="#28214a" />
                    </g>
                    <g transform="translate(0.347)">
                        <path
                            d="M514.145,365.376c.917-.287.322-.8-.275-1.157-1.229-.341-2.259-.577-2.489-.672a1.435,1.435,0,0,1-.781-.793l-.621-.114s-.964,1.635-1.054,1.849C509.828,365.443,512.8,365.794,514.145,365.376Z"
                            transform="translate(-508.926 -362.64)" fill="#eb7f95" />
                    </g>
                </g>
                <g transform="translate(16.588 171.304)">
                    <g transform="translate(0 1.58)">
                        <path
                            d="M474.639,365.826c-.417-2.441,2.993-1.766,4.973-2.316-.6.355-1.19.869-.273,1.156,1.341.419,4.316.067,5.218-.886a6.222,6.222,0,0,1,.341,2.443C484.864,367.116,474.928,367.528,474.639,365.826Z"
                            transform="translate(-474.603 -363.51)" fill="#28214a" />
                    </g>
                    <g transform="translate(4.261)">
                        <path
                            d="M478.3,365.05c-.917-.287-.324-.8.273-1.156,1.229-.342,2.259-.579,2.489-.674a1.44,1.44,0,0,0,.782-.793l.62-.114s.964,1.635,1.054,1.849C482.619,365.117,479.644,365.468,478.3,365.05Z"
                            transform="translate(-477.829 -362.314)" fill="#eb7f95" />
                    </g>
                </g>
                <g transform="translate(21.356 57.093)">
                    <path
                        d="M513.98,279.13a88.56,88.56,0,0,1,6.775,13.663c4.412,11.9,1.877,84.617.152,97.348-.233,1.717-4.329,0-4.424-2.137-.6-13.42-15.7-81.316-15.7-81.316l-17.969,84.134h-4.218s-2.742-81.144,6.456-114.835C489.033,275.143,507.8,278.632,513.98,279.13Z"
                        transform="translate(-478.212 -275.855)" fill="#ffbd33" />
                </g>
                <g transform="translate(42.64 58.076)">
                    <path
                        d="M509.918,276.611c.028.3,4.248,8.823,6.542,16.638,4.106,13.995,1,83.922-.724,96.653-.123.915-1.345.856-2.473.276-.483-.248,2.036-25.706-4.355-56.355-2.4-11.527-5.892-24.827-8.158-33.939-3.131-12.586-7.874-20.749-6-20.685C500.013,279.378,507.118,276.386,509.918,276.611Z"
                        transform="translate(-494.325 -276.599)" fill="#f48323" />
                </g>
                <g transform="translate(26.644 21.177)">
                    <path
                        d="M482.49,254.33c2.594-2.746,10.815-6.469,26.606-5.51a15.99,15.99,0,0,1,4.715,1.016c-.309,5.294,2.672,11.849,2.672,11.849a52.158,52.158,0,0,0-2.008,11.066c-.375,4.513-.005,14.316-.005,14.316s-10.334,2.305-15.432,2.868c-4.186.462-15.8-1.219-16.231-3.693-.856-4.913-.6-10.4-.355-17.589C482.738,260.26,482.49,254.33,482.49,254.33Z"
                        transform="translate(-482.215 -248.666)" fill="#1690ce" />
                </g>
                <g transform="translate(68.113 46.742)">
                    <path
                        d="M525.274,289.8c-2.069-2.2-11.666-16.33-11.666-16.33s1.752-6.9,4.589-5.172c3.131,1.91,6.848,5.013,11.177,8.276,2.528,1.906,3.954,6.091,4.693,9.169a3.814,3.814,0,0,1-3,4.643C528.885,290.794,526.353,290.945,525.274,289.8Z"
                        transform="translate(-513.608 -268.019)" fill="#e23632" />
                </g>
                <g transform="translate(51.288 21.984)">
                    <path
                        d="M518.556,280.745s-8.77-12.988-10.716-17.153c-.847-1.811-2.058-4.194-6.423-9.7-1.333-1.683-.443-3.646,5.061-4.593,4.4-.756,17.088,22.454,18.338,26.71C526.124,280.464,518.556,280.745,518.556,280.745Z"
                        transform="translate(-500.871 -249.277)" fill="#1791cd" />
                </g>
                <g transform="translate(41.664 21.177)">
                    <path
                        d="M495.759,248.831s2.057-.122,3.156-.147c2.016-.046,4.19-.007,6.531.136a15.989,15.989,0,0,1,4.715,1.016c-.309,5.294,2.672,11.849,2.672,11.849a52.148,52.148,0,0,0-2.008,11.066c-.375,4.512-.005,14.316-.005,14.316s-6.254,1.985-8.395,2.369c-1.729.309-7.612.546-7.612.546s.353-2.811-.888-13.246C492.559,265.25,495.759,248.831,495.759,248.831Z"
                        transform="translate(-493.586 -248.666)" fill="#1690ce" />
                </g>
                <g transform="translate(0 46.727)">
                    <path
                        d="M471.486,290.93c1.616-2.548,8.366-18.24,8.366-18.24s-3.025-6.448-5.485-4.21c-2.713,2.468-5.777,6.218-9.409,10.24-2.444,2.705-2.88,8.1-2.911,11.232a2.6,2.6,0,0,0,2.472,2.618C466.942,292.687,470.458,292.552,471.486,290.93Z"
                        transform="translate(-462.046 -268.008)" fill="#e44740" />
                </g>
                <g transform="translate(8.995 24.14)">
                    <path
                        d="M476.329,281.257s7.616-10.946,9.81-14.985c.955-1.758,2.309-4.062,7-9.3,1.432-1.6,1.823-7.91-3.231-5.536-7.453,3.5-16.692,21.01-20.462,25.281C466.369,280.2,476.329,281.257,476.329,281.257Z"
                        transform="translate(-468.855 -250.909)" fill="#1791cd" />
                </g>
                <g transform="translate(2.127 50.905)">
                    <rect width="84.113" height="50.127" rx="2.063" fill="#cdc2e1" />
                    <g transform="translate(57.551 33.053)">
                        <path
                            d="M521.461,303.312a7.119,7.119,0,1,1-7.12-7.12A7.12,7.12,0,0,1,521.461,303.312Z"
                            transform="translate(-507.222 -296.192)" fill="#b0a2cf" />
                    </g>
                    <g transform="translate(65.986 33.053)">
                        <path
                            d="M527.847,303.312a7.119,7.119,0,1,1-7.119-7.12A7.119,7.119,0,0,1,527.847,303.312Z"
                            transform="translate(-513.608 -296.192)" fill="#5d529b" />
                    </g>
                    <g transform="translate(4.331 42.703)">
                        <rect width="24.949" height="3.516" fill="#e8e4f3" />
                    </g>
                    <g transform="translate(35.115 37.304)">
                        <rect width="8.462" height="3.647" fill="#e8e4f3" />
                    </g>
                    <g transform="translate(4.331 26.478)">
                        <rect width="13.794" height="3.647" fill="#e8e4f3" />
                    </g>
                    <g transform="translate(24.518 26.478)">
                        <rect width="13.794" height="3.647" fill="#e8e4f3" />
                    </g>
                    <g transform="translate(44.705 26.478)">
                        <rect width="13.794" height="3.647" fill="#e8e4f3" />
                    </g>
                    <g transform="translate(64.892 26.478)">
                        <rect width="13.794" height="3.647" fill="#e8e4f3" />
                    </g>
                    <g transform="translate(46.333 37.304)">
                        <rect width="8.462" height="3.647" fill="#e8e4f3" />
                    </g>
                    <g transform="translate(0 8.888)">
                        <rect width="84.113" height="11.898" fill="#b0a2cf" />
                    </g>
                </g>
                <g transform="translate(82.373 66.002)">
                    <path
                        d="M528.783,283.987a4.118,4.118,0,0,1-.869,3.435,3.861,3.861,0,0,1-3.022.69c-.382-.272.124-.6.124-.6s-.594.122-.613-.3c-.012-.26,1.12-.923,1.761-1.634.394-.435.6-1.115.919-1.326,0,0-1.149.387-1.218.022s1.269-1.548,1.935-1.672C528.248,282.521,528.728,283.528,528.783,283.987Z"
                        transform="translate(-524.403 -282.599)" fill="#eb7f95" />
                    <g transform="translate(1.138 3.353)">
                        <path
                            d="M526.342,286.763s-1.649,1.272-.868,1.2,3.02-1.56,2.884-2.579S526.342,286.763,526.342,286.763Z"
                            transform="translate(-525.264 -285.137)" fill="#eb7f95" />
                    </g>
                    <g transform="translate(3.068 2.68)">
                        <path
                            d="M527.035,286.525a4.968,4.968,0,0,0-.291,1.852c.111.713,1.555-2.371,1.291-3.483S527.035,286.525,527.035,286.525Z"
                            transform="translate(-526.725 -284.628)" fill="#eb7f95" />
                    </g>
                </g>
                <g transform="translate(0.989 68.42)">
                    <g transform="translate(0.039)">
                        <path
                            d="M462.931,285.759a4.128,4.128,0,0,0,.661,3.482,3.859,3.859,0,0,0,2.976.871c.4-.248-.088-.606-.088-.606s.585.157.63-.259c.028-.259-1.062-.991-1.659-1.737-.366-.458-.528-1.149-.836-1.379,0,0,1.123.454,1.213.1s-1.173-1.624-1.83-1.787C463.555,284.328,463.016,285.3,462.931,285.759Z"
                            transform="translate(-462.823 -284.43)" fill="#eb7f95" />
                    </g>
                    <g transform="translate(0.149 3.313)">
                        <path
                            d="M464.85,288.67s1.568,1.369.793,1.255-2.919-1.741-2.723-2.748S464.85,288.67,464.85,288.67Z"
                            transform="translate(-462.907 -286.938)" fill="#eb7f95" />
                    </g>
                    <g transform="translate(0 2.631)">
                        <path
                            d="M463.75,288.364a4.956,4.956,0,0,1,.177,1.867c-.155.705-1.408-2.462-1.078-3.555S463.75,288.364,463.75,288.364Z"
                            transform="translate(-462.794 -286.421)" fill="#eb7f95" />
                    </g>
                </g>
                <g transform="translate(34.643 21.127)">
                    <path
                        d="M488.271,250.372s4.612,10.236,7.482,10.864,10.507-12.452,10.507-12.452S495.949,247.895,488.271,250.372Z"
                        transform="translate(-488.271 -248.628)" fill="#cdc2e1" />
                </g>
                <g transform="translate(45.403 18.313)">
                    <path d="M496.416,246.5Z" transform="translate(-496.416 -246.498)"
                        fill="#28214a" />
                </g>
                <g transform="translate(41.474 16.568)">
                    <g transform="translate(0 0.213)">
                        <path
                            d="M497.355,245.449s1.092,5.684.506,6.3-2.716,1.38-3.914-.069.115-6.341.115-6.341Z"
                            transform="translate(-493.442 -245.338)" fill="#eb7f95" />
                    </g>
                    <g transform="translate(0.119)">
                        <path
                            d="M497.937,249.638c-1.272.445-3.16-.328-4.4-1.672-.013-1.03.042-.433.21-1.293l3.481-1.5C497.36,245.993,497.849,248.689,497.937,249.638Z"
                            transform="translate(-493.533 -245.177)" fill="#ba4865" />
                    </g>
                </g>
                <g transform="translate(40.762 20.709)">
                    <path
                        d="M493.623,248.312s-.189,1.247,2.152,3.26l-1.684,2.594S491.765,252.176,493.623,248.312Z"
                        transform="translate(-492.903 -248.312)" fill="#e8e4f3" />
                </g>
                <g transform="translate(43.447 20.662)">
                    <path
                        d="M497.47,248.276s.144.625-2.534,3.32l1.643,2.193S499.825,251.858,497.47,248.276Z"
                        transform="translate(-494.936 -248.276)" fill="#e8e4f3" />
                </g>
                <g transform="translate(39.264 0.444)">
                    <path
                        d="M491.778,245.526c.009-.1.639-7.057.9-7.913a8.214,8.214,0,0,1,1.5-3.252c1.613-1.811,5.888-1.972,7.577.239.91,1.193,1.584,4.565,4.166,3.308,0,0,1.421-1.395.655.606-.959,2.5-2.518,3.018-2.518,3.018s.141,7.824-5.291,8.148C494.888,249.91,491.57,247.751,491.778,245.526Z"
                        transform="translate(-491.769 -232.971)" fill="#28214a" />
                </g>
                <g transform="translate(39.932 9.902)">
                    <path
                        d="M492.3,245.07a11.824,11.824,0,0,1,.794-3.7,1.534,1.534,0,0,1,.8-.944c2.115-.934,5.808.626,6.412,1.3.732.818.416,2.1.2,3.059s-2.061,5.561-5.11,4.626C492.081,248.388,492.368,247.038,492.3,245.07Z"
                        transform="translate(-492.275 -240.131)" fill="#eb7f95" />
                </g>
                <g transform="translate(39.273)">
                    <path
                        d="M491.776,245.634c.011-2.182.124-4.351.316-6.527a8.787,8.787,0,0,1,.244-1.675,14.916,14.916,0,0,1,.5-1.6,5.742,5.742,0,0,1,.873-1.52,4.332,4.332,0,0,1,1.435-1.112,6.652,6.652,0,0,1,3.424-.53,4.447,4.447,0,0,1,4.036,2.933,12.857,12.857,0,0,0,.713,1.428,2.374,2.374,0,0,0,1.063,1.055,2.194,2.194,0,0,0,1.538-.073,2.13,2.13,0,0,1-1.617.307,2.7,2.7,0,0,1-1.361-1.032c-.687-.889-1.032-2.024-1.737-2.659a4.59,4.59,0,0,0-2.723-1.079,5.887,5.887,0,0,0-2.937.49,3.411,3.411,0,0,0-1.132.851,5.244,5.244,0,0,0-.764,1.283,14.034,14.034,0,0,0-.536,1.49,12.084,12.084,0,0,0-.317,1.531c-.177,1.065-.328,2.141-.486,3.217C492.129,243.484,491.979,244.561,491.776,245.634Z"
                        transform="translate(-491.776 -232.635)" fill="#5d529b" />
                </g>
                <g transform="translate(40.119 11.807)">
                    <path
                        d="M496.445,242.465l-3.47-.882c-.147-.037-.527.03-.543.233a3.852,3.852,0,0,0,.164,1.557,1.556,1.556,0,0,0,1.682,1,2.414,2.414,0,0,0,2.3-1.756c.07-.263-.612-.168-.678.077a1.577,1.577,0,0,1-1.82,1.236c-.942-.184-1.033-1.4-.972-2.2l-.543.232,3.47.882C496.271,242.913,496.833,242.564,496.445,242.465Z"
                        transform="translate(-492.416 -241.573)" fill="#fff" />
                </g>
                <g transform="translate(44.353 12.816)">
                    <path
                        d="M499.458,243.135l-3.074-.782c-.17-.044-.443,0-.518.189a3.192,3.192,0,0,0-.235,1.4c.078.842.732,1.135,1.507,1.165a2.408,2.408,0,0,0,2.469-1.768c.083-.329-.608-.254-.686.049a1.666,1.666,0,0,1-1.642,1.213.893.893,0,0,1-.964-1.1,3.075,3.075,0,0,1,.2-.882l-.518.19,3.074.782C499.367,243.671,499.868,243.239,499.458,243.135Z"
                        transform="translate(-495.622 -242.337)" fill="#fff" />
                </g>
                <g transform="translate(43.776 13.118)">
                    <path
                        d="M496.176,243.064a1.079,1.079,0,0,0-.943-.244l-.048-.227a1.291,1.291,0,0,1,1.172.324Z"
                        transform="translate(-495.185 -242.565)" fill="#fff" />
                </g>
            </g>
            <g transform="translate(-65.42 48.96)">
                <g transform="translate(61.581 171.734)">
                    <g transform="translate(0 1.58)">
                        <path
                            d="M486.835,398.745c.416-2.441-2.993-1.766-4.974-2.317.6.355,1.19.871.273,1.157-1.341.419-4.316.066-5.218-.888a6.253,6.253,0,0,0-.342,2.444C476.61,400.036,486.546,400.448,486.835,398.745Z"
                            transform="translate(-476.57 -396.428)" fill="#28214a" />
                    </g>
                    <g transform="translate(0.347)">
                        <path
                            d="M482.051,397.969c.917-.287.324-.8-.273-1.157-1.229-.341-2.259-.577-2.489-.674a1.436,1.436,0,0,1-.782-.793l-.62-.114s-.964,1.637-1.054,1.849C477.735,398.035,480.71,398.388,482.051,397.969Z"
                            transform="translate(-476.833 -395.232)" fill="#eb7f95" />
                    </g>
                </g>
                <g transform="translate(16.587 171.303)">
                    <g transform="translate(0 1.58)">
                        <path
                            d="M442.544,398.419c-.416-2.441,2.993-1.766,4.975-2.317-.6.355-1.192.871-.275,1.157,1.342.419,4.317.066,5.219-.888a6.254,6.254,0,0,1,.341,2.444C452.772,399.71,442.835,400.122,442.544,398.419Z"
                            transform="translate(-442.51 -396.102)" fill="#28214a" />
                    </g>
                    <g transform="translate(4.261)">
                        <path
                            d="M446.209,397.643c-.917-.287-.322-.8.275-1.157,1.229-.341,2.259-.577,2.489-.674a1.431,1.431,0,0,0,.781-.793l.621-.114s.964,1.637,1.054,1.849C450.526,397.709,447.551,398.062,446.209,397.643Z"
                            transform="translate(-445.736 -394.906)" fill="#eb7f95" />
                    </g>
                </g>
                <g transform="translate(21.356 57.093)">
                    <path
                        d="M481.887,311.723a88.4,88.4,0,0,1,6.774,13.663c4.413,11.9,1.878,84.617.153,97.348-.232,1.717-4.329,0-4.424-2.137-.6-13.42-15.7-81.316-15.7-81.316L450.72,423.414H446.5s-2.742-81.144,6.456-114.835C456.94,307.736,475.71,311.225,481.887,311.723Z"
                        transform="translate(-446.119 -308.448)" fill="#ffbd33" />
                </g>
                <g transform="translate(42.64 58.076)">
                    <path
                        d="M477.825,309.2c.028.3,4.248,8.823,6.54,16.638,4.107,13.995,1,83.922-.723,96.653-.124.914-1.345.855-2.473.276-.485-.248,2.036-25.708-4.355-56.355-2.4-11.527-5.892-24.828-8.158-33.94-3.131-12.586-7.874-20.749-6-20.684C467.92,311.971,475.025,308.978,477.825,309.2Z"
                        transform="translate(-462.232 -309.192)" fill="#f48323" />
                </g>
                <g transform="translate(26.643 21.177)">
                    <path
                        d="M450.4,286.923c2.6-2.746,10.816-6.469,26.607-5.51a15.989,15.989,0,0,1,4.715,1.016c-.309,5.293,2.672,11.849,2.672,11.849a52.166,52.166,0,0,0-2.009,11.066c-.374,4.511,0,14.316,0,14.316s-10.334,2.3-15.432,2.867c-4.188.462-15.8-1.219-16.231-3.693-.857-4.911-.6-10.4-.355-17.588C450.645,292.852,450.4,286.923,450.4,286.923Z"
                        transform="translate(-450.122 -281.259)" fill="#e44740" />
                </g>
                <g transform="translate(68.113 46.742)">
                    <path
                        d="M493.181,322.392c-2.069-2.2-11.666-16.33-11.666-16.33s1.752-6.9,4.589-5.172c3.131,1.91,6.848,5.013,11.176,8.276,2.53,1.906,3.955,6.09,4.693,9.169a3.812,3.812,0,0,1-3,4.643C496.792,323.386,494.259,323.538,493.181,322.392Z"
                        transform="translate(-481.515 -300.612)" fill="#e23632" />
                </g>
                <g transform="translate(51.288 21.984)">
                    <path
                        d="M486.462,313.338s-8.769-12.988-10.715-17.153c-.847-1.812-2.059-4.194-6.423-9.705-1.333-1.682-.443-3.646,5.061-4.592,4.4-.756,17.088,22.453,18.337,26.71C494.031,313.057,486.462,313.338,486.462,313.338Z"
                        transform="translate(-468.778 -281.87)" fill="#e23632" />
                </g>
                <g transform="translate(41.664 21.177)">
                    <path
                        d="M463.666,281.423s2.057-.122,3.156-.145c2.015-.046,4.19-.007,6.531.136a15.989,15.989,0,0,1,4.715,1.016c-.309,5.293,2.672,11.849,2.672,11.849a52.158,52.158,0,0,0-2.009,11.066c-.374,4.511,0,14.316,0,14.316s-6.254,1.985-8.395,2.367c-1.729.309-7.612.547-7.612.547s.351-2.812-.888-13.247C460.467,297.841,463.666,281.423,463.666,281.423Z"
                        transform="translate(-461.493 -281.259)" fill="#e23632" />
                </g>
                <g transform="translate(0 46.726)">
                    <path
                        d="M439.393,323.523c1.616-2.548,8.365-18.24,8.365-18.24s-3.025-6.448-5.483-4.211c-2.713,2.468-5.777,6.218-9.409,10.242-2.444,2.705-2.88,8.1-2.911,11.232a2.6,2.6,0,0,0,2.472,2.618C434.847,325.28,438.365,325.144,439.393,323.523Z"
                        transform="translate(-429.953 -300.6)" fill="#e44740" />
                </g>
                <g transform="translate(8.994 24.14)">
                    <path
                        d="M444.236,313.849s7.615-10.944,9.81-14.984c.955-1.758,2.309-4.063,7-9.3,1.432-1.6,1.823-7.91-3.231-5.538-7.453,3.5-16.692,21.012-20.462,25.281C434.275,312.794,444.236,313.849,444.236,313.849Z"
                        transform="translate(-436.761 -283.502)" fill="#e44740" />
                </g>
                <g transform="translate(2.126 50.905)">
                    <rect width="84.113" height="50.127" rx="2.063" fill="#cdc2e1" />
                    <g transform="translate(57.551 33.053)">
                        <path
                            d="M489.368,335.9a7.119,7.119,0,1,1-7.12-7.119A7.12,7.12,0,0,1,489.368,335.9Z"
                            transform="translate(-475.129 -328.785)" fill="#b0a2cf" />
                    </g>
                    <g transform="translate(65.987 33.053)">
                        <path
                            d="M495.754,335.9a7.119,7.119,0,1,1-7.12-7.119A7.12,7.12,0,0,1,495.754,335.9Z"
                            transform="translate(-481.515 -328.785)" fill="#5d529b" />
                    </g>
                    <g transform="translate(4.331 42.703)">
                        <rect width="24.949" height="3.516" fill="#e8e4f3" />
                    </g>
                    <g transform="translate(35.115 37.304)">
                        <rect width="8.462" height="3.647" fill="#e8e4f3" />
                    </g>
                    <g transform="translate(4.331 26.478)">
                        <rect width="13.794" height="3.647" fill="#e8e4f3" />
                    </g>
                    <g transform="translate(24.518 26.478)">
                        <rect width="13.794" height="3.647" fill="#e8e4f3" />
                    </g>
                    <g transform="translate(44.705 26.478)">
                        <rect width="13.794" height="3.647" fill="#e8e4f3" />
                    </g>
                    <g transform="translate(64.892 26.478)">
                        <rect width="13.794" height="3.647" fill="#e8e4f3" />
                    </g>
                    <g transform="translate(46.333 37.304)">
                        <rect width="8.462" height="3.647" fill="#e8e4f3" />
                    </g>
                    <g transform="translate(0 8.888)">
                        <rect width="84.113" height="11.898" fill="#b0a2cf" />
                    </g>
                </g>
                <g transform="translate(82.373 66.002)">
                    <path
                        d="M496.69,316.58a4.122,4.122,0,0,1-.869,3.435,3.861,3.861,0,0,1-3.022.69c-.382-.272.124-.6.124-.6s-.594.121-.613-.3c-.012-.26,1.12-.925,1.761-1.634.392-.436.6-1.115.918-1.326,0,0-1.148.386-1.217.022s1.269-1.549,1.935-1.672C496.155,315.114,496.635,316.12,496.69,316.58Z"
                        transform="translate(-492.31 -315.192)" fill="#eb7f95" />
                    <g transform="translate(1.138 3.353)">
                        <path
                            d="M494.249,319.356s-1.649,1.272-.868,1.2,3.02-1.561,2.884-2.579S494.249,319.356,494.249,319.356Z"
                            transform="translate(-493.171 -317.73)" fill="#eb7f95" />
                    </g>
                    <g transform="translate(3.067 2.68)">
                        <path
                            d="M494.941,319.118a4.941,4.941,0,0,0-.289,1.852c.111.713,1.555-2.372,1.291-3.483S494.941,319.118,494.941,319.118Z"
                            transform="translate(-494.632 -317.221)" fill="#eb7f95" />
                    </g>
                </g>
                <g transform="translate(0.989 68.42)">
                    <g transform="translate(0.039)">
                        <path
                            d="M430.838,318.352a4.125,4.125,0,0,0,.66,3.481,3.86,3.86,0,0,0,2.975.872c.4-.248-.087-.606-.087-.606s.585.157.63-.26c.028-.258-1.062-.989-1.659-1.737-.366-.458-.528-1.148-.838-1.379,0,0,1.124.454,1.214.1s-1.173-1.622-1.83-1.786C431.462,316.921,430.923,317.9,430.838,318.352Z"
                            transform="translate(-430.73 -317.023)" fill="#eb7f95" />
                    </g>
                    <g transform="translate(0.148 3.313)">
                        <path
                            d="M432.756,321.263s1.569,1.368.794,1.255-2.921-1.741-2.724-2.749S432.756,321.263,432.756,321.263Z"
                            transform="translate(-430.813 -319.53)" fill="#eb7f95" />
                    </g>
                    <g transform="translate(0 2.63)">
                        <path
                            d="M431.657,320.957a4.953,4.953,0,0,1,.177,1.865c-.155.707-1.408-2.461-1.078-3.555S431.657,320.957,431.657,320.957Z"
                            transform="translate(-430.701 -319.013)" fill="#eb7f95" />
                    </g>
                </g>
                <g transform="translate(34.642 21.127)">
                    <path
                        d="M456.177,282.964s4.613,10.235,7.483,10.864,10.506-12.452,10.506-12.452S463.856,280.488,456.177,282.964Z"
                        transform="translate(-456.177 -281.221)" fill="#cdc2e1" />
                </g>
                <g transform="translate(45.403 18.312)">
                    <path d="M464.323,279.091Z" transform="translate(-464.323 -279.091)"
                        fill="#28214a" />
                </g>
                <g transform="translate(41.474 16.567)">
                    <g transform="translate(0 0.214)">
                        <path
                            d="M465.262,278.042s1.091,5.683.5,6.3-2.715,1.38-3.913-.069.115-6.341.115-6.341Z"
                            transform="translate(-461.349 -277.931)" fill="#eb7f95" />
                    </g>
                    <g transform="translate(0.119)">
                        <path
                            d="M465.844,282.231c-1.272.444-3.16-.329-4.4-1.674-.013-1.03.042-.433.21-1.293l3.481-1.5C465.267,278.587,465.756,281.283,465.844,282.231Z"
                            transform="translate(-461.44 -277.769)" fill="#ba4865" />
                    </g>
                </g>
                <g transform="translate(40.762 20.709)">
                    <path
                        d="M461.529,280.9s-.188,1.246,2.153,3.259L462,286.76S459.673,284.768,461.529,280.9Z"
                        transform="translate(-460.81 -280.905)" fill="#e8e4f3" />
                </g>
                <g transform="translate(43.447 20.662)">
                    <path
                        d="M465.377,280.869s.144.624-2.534,3.32l1.642,2.193S467.731,284.452,465.377,280.869Z"
                        transform="translate(-462.843 -280.869)" fill="#e8e4f3" />
                </g>
                <g transform="translate(39.264 0.445)">
                    <path
                        d="M459.685,278.117c.009-.1.639-7.055.9-7.911a8.2,8.2,0,0,1,1.5-3.252c1.614-1.811,5.889-1.972,7.578.239.91,1.192,1.583,4.564,4.166,3.306,0,0,1.42-1.394.655.606-.959,2.5-2.518,3.02-2.518,3.02s.141,7.824-5.291,8.147C462.795,282.5,459.475,280.343,459.685,278.117Z"
                        transform="translate(-459.676 -265.564)" fill="#28214a" />
                </g>
                <g transform="translate(39.932 9.902)">
                    <path
                        d="M460.2,277.663a11.837,11.837,0,0,1,.794-3.705,1.534,1.534,0,0,1,.8-.943c2.115-.935,5.808.626,6.412,1.3.732.818.416,2.1.2,3.059s-2.061,5.561-5.11,4.626C459.988,280.982,460.275,279.632,460.2,277.663Z"
                        transform="translate(-460.182 -272.724)" fill="#eb7f95" />
                </g>
                <g transform="translate(39.273)">
                    <path
                        d="M459.683,278.225c.011-2.181.124-4.35.316-6.527a8.783,8.783,0,0,1,.244-1.674,14.878,14.878,0,0,1,.5-1.6,5.771,5.771,0,0,1,.872-1.52,4.356,4.356,0,0,1,1.436-1.114,6.649,6.649,0,0,1,3.424-.528,5.067,5.067,0,0,1,3.144,1.453,5.01,5.01,0,0,1,.89,1.48,12.862,12.862,0,0,0,.715,1.428,2.375,2.375,0,0,0,1.062,1.054,2.19,2.19,0,0,0,1.539-.073,2.124,2.124,0,0,1-1.617.308,2.712,2.712,0,0,1-1.362-1.032c-.686-.889-1.03-2.024-1.737-2.659a4.593,4.593,0,0,0-2.721-1.081,5.888,5.888,0,0,0-2.937.491,3.425,3.425,0,0,0-1.132.849,5.323,5.323,0,0,0-.765,1.284,14.388,14.388,0,0,0-.535,1.489,11.915,11.915,0,0,0-.317,1.531c-.178,1.066-.329,2.143-.486,3.217C460.036,276.077,459.886,277.154,459.683,278.225Z"
                        transform="translate(-459.683 -265.228)" fill="#5d529b" />
                </g>
                <g transform="translate(40.119 11.807)">
                    <path
                        d="M464.352,275.058l-3.47-.882c-.147-.037-.527.03-.543.232a3.851,3.851,0,0,0,.164,1.557,1.556,1.556,0,0,0,1.682,1,2.414,2.414,0,0,0,2.3-1.756c.07-.263-.612-.169-.678.077a1.577,1.577,0,0,1-1.82,1.236c-.942-.184-1.034-1.406-.972-2.2l-.543.233,3.47.882C464.176,275.506,464.74,275.157,464.352,275.058Z"
                        transform="translate(-460.323 -274.166)" fill="#fff" />
                </g>
                <g transform="translate(44.353 12.815)">
                    <path
                        d="M467.365,275.727l-3.074-.782c-.17-.042-.444,0-.518.19a3.19,3.19,0,0,0-.235,1.4c.078.841.732,1.133,1.507,1.165a2.408,2.408,0,0,0,2.468-1.767c.085-.329-.608-.254-.684.049a1.666,1.666,0,0,1-1.643,1.213.893.893,0,0,1-.963-1.1,3.035,3.035,0,0,1,.2-.882l-.518.19,3.074.782C467.273,276.264,467.775,275.831,467.365,275.727Z"
                        transform="translate(-463.529 -274.929)" fill="#fff" />
                </g>
                <g transform="translate(43.776 13.118)">
                    <path
                        d="M464.083,275.656a1.081,1.081,0,0,0-.943-.243l-.048-.227a1.284,1.284,0,0,1,1.17.324Z"
                        transform="translate(-463.092 -275.158)" fill="#fff" />
                </g>
            </g>
            <circle cx="21.151" cy="21.151" r="21.151" transform="translate(-42.395 43.055)"
                fill="none" />
        </g>
    </g>
</svg>